<svg version="1.1" xmlns="http://www.w3.org/2000/svg" viewBox="0 0 840 400" width="840" height="400">
  <!-- svg-source:excalidraw -->
  
  <defs>
    <style>
      @font-face {
        font-family: "Virgil";
        src: url("https://excalidraw.com/Virgil.woff2");
      }
      @font-face {
        font-family: "Cascadia";
        src: url("https://excalidraw.com/Cascadia.woff2");
      }
    </style>
  </defs>
  <g stroke-linecap="round" transform="translate(10 10) rotate(0 110 40)"><path d="M0 0 L220 0 L220 80 L0 80" stroke="none" stroke-width="0" fill="#e54b4b"></path><path d="M0 0 C64.75 0, 129.5 0, 220 0 M0 0 C83.72 0, 167.45 0, 220 0 M220 0 C220 21.47, 220 42.94, 220 80 M220 0 C220 30.02, 220 60.04, 220 80 M220 80 C150.85 80, 81.71 80, 0 80 M220 80 C154.1 80, 88.2 80, 0 80 M0 80 C0 63.64, 0 47.28, 0 0 M0 80 C0 52.08, 0 24.17, 0 0" stroke="#fff" stroke-width="1" fill="none"></path></g><g transform="translate(70 30) rotate(0 51 18.5)"><text x="51" y="15.5" font-family="Helvetica, Segoe UI Emoji" font-size="16px" fill="#fff" text-anchor="middle" style="white-space: pre;" direction="ltr">Create </text><text x="51" y="34" font-family="Helvetica, Segoe UI Emoji" font-size="16px" fill="#fff" text-anchor="middle" style="white-space: pre;" direction="ltr">protocol buffer</text></g><g stroke-linecap="round" transform="translate(10 190) rotate(0 110 40)"><path d="M0 0 L220 0 L220 80 L0 80" stroke="none" stroke-width="0" fill="#e54b4b"></path><path d="M0 0 C83.58 0, 167.15 0, 220 0 M0 0 C60.49 0, 120.98 0, 220 0 M220 0 C220 20.17, 220 40.35, 220 80 M220 0 C220 29.49, 220 58.98, 220 80 M220 80 C144.78 80, 69.55 80, 0 80 M220 80 C154.49 80, 88.99 80, 0 80 M0 80 C0 58.06, 0 36.11, 0 0 M0 80 C0 51.47, 0 22.94, 0 0" stroke="#fff" stroke-width="1" fill="none"></path></g><g transform="translate(91.5 210) rotate(0 29.5 18.5)"><text x="29.5" y="15.5" font-family="Helvetica, Segoe UI Emoji" font-size="16px" fill="#fff" text-anchor="middle" style="white-space: pre;" direction="ltr">Release</text><text x="29.5" y="34" font-family="Helvetica, Segoe UI Emoji" font-size="16px" fill="#fff" text-anchor="middle" style="white-space: pre;" direction="ltr">neuron</text></g><g stroke-linecap="round" transform="translate(10 310) rotate(0 110 40)"><path d="M0 0 L220 0 L220 80 L0 80" stroke="none" stroke-width="0" fill="#e54b4b"></path><path d="M0 0 C48.8 0, 97.6 0, 220 0 M0 0 C76.05 0, 152.09 0, 220 0 M220 0 C220 21.8, 220 43.6, 220 80 M220 0 C220 29.79, 220 59.58, 220 80 M220 80 C173.76 80, 127.52 80, 0 80 M220 80 C152.92 80, 85.84 80, 0 80 M0 80 C0 63.03, 0 46.07, 0 0 M0 80 C0 51.27, 0 22.55, 0 0" stroke="#fff" stroke-width="1" fill="none"></path></g><g transform="translate(96 330) rotate(0 25 18.5)"><text x="25" y="15.5" font-family="Helvetica, Segoe UI Emoji" font-size="16px" fill="#fff" text-anchor="middle" style="white-space: pre;" direction="ltr">Deploy</text><text x="25" y="34" font-family="Helvetica, Segoe UI Emoji" font-size="16px" fill="#fff" text-anchor="middle" style="white-space: pre;" direction="ltr">neuron</text></g><g stroke-linecap="round" transform="translate(310 10) rotate(0 110 40)"><path d="M0 0 L220 0 L220 80 L0 80" stroke="none" stroke-width="0" fill="#c9cad9"></path><path d="M0 0 C65.35 0, 130.7 0, 220 0 M0 0 C76.41 0, 152.83 0, 220 0 M220 0 C220 20.6, 220 41.19, 220 80 M220 0 C220 21.07, 220 42.15, 220 80 M220 80 C136.24 80, 52.47 80, 0 80 M220 80 C148.69 80, 77.37 80, 0 80 M0 80 C0 63.39, 0 46.77, 0 0 M0 80 C0 59.33, 0 38.67, 0 0" stroke="#fff" stroke-width="1" fill="none"></path></g><g transform="translate(362.5 30) rotate(0 58.5 18.5)"><text x="58.5" y="15.5" font-family="Helvetica, Segoe UI Emoji" font-size="16px" fill="#000" text-anchor="middle" style="white-space: pre;" direction="ltr">Define methods </text><text x="58.5" y="34" font-family="Helvetica, Segoe UI Emoji" font-size="16px" fill="#000" text-anchor="middle" style="white-space: pre;" direction="ltr">and message</text></g><g stroke-linecap="round" transform="translate(610 10) rotate(0 110 40)"><path d="M0 0 L220 0 L220 80 L0 80" stroke="none" stroke-width="0" fill="#e54b4b"></path><path d="M0 0 C45.38 0, 90.77 0, 220 0 M0 0 C85.31 0, 170.62 0, 220 0 M220 0 C220 23.1, 220 46.21, 220 80 M220 0 C220 27.27, 220 54.54, 220 80 M220 80 C168.16 80, 116.33 80, 0 80 M220 80 C146.31 80, 72.62 80, 0 80 M0 80 C0 48.08, 0 16.16, 0 0 M0 80 C0 63.14, 0 46.27, 0 0" stroke="#fff" stroke-width="1" fill="none"></path></g><g transform="translate(670 30) rotate(0 51 18.5)"><text x="51" y="15.5" font-family="Helvetica, Segoe UI Emoji" font-size="16px" fill="#fff" text-anchor="middle" style="white-space: pre;" direction="ltr">Release</text><text x="51" y="34" font-family="Helvetica, Segoe UI Emoji" font-size="16px" fill="#fff" text-anchor="middle" style="white-space: pre;" direction="ltr">protocol buffer</text></g><g stroke-linecap="round" transform="translate(610 190) rotate(0 110 40)"><path d="M0 0 L220 0 L220 80 L0 80" stroke="none" stroke-width="0" fill="#e54b4b"></path><path d="M0 0 C74.26 0, 148.52 0, 220 0 M0 0 C63.42 0, 126.84 0, 220 0 M220 0 C220 30.66, 220 61.32, 220 80 M220 0 C220 26.29, 220 52.57, 220 80 M220 80 C144.68 80, 69.37 80, 0 80 M220 80 C140.48 80, 60.95 80, 0 80 M0 80 C0 57.31, 0 34.61, 0 0 M0 80 C0 52.99, 0 25.98, 0 0" stroke="#fff" stroke-width="1" fill="none"></path></g><g transform="translate(696 210) rotate(0 25 18.5)"><text x="25" y="15.5" font-family="Helvetica, Segoe UI Emoji" font-size="16px" fill="#fff" text-anchor="middle" style="white-space: pre;" direction="ltr">Create</text><text x="25" y="34" font-family="Helvetica, Segoe UI Emoji" font-size="16px" fill="#fff" text-anchor="middle" style="white-space: pre;" direction="ltr">neuron</text></g><g stroke-linecap="round" transform="translate(310 130) rotate(0 110 40)"><path d="M0 0 L220 0 L220 80 L0 80" stroke="none" stroke-width="0" fill="#c9cad9"></path><path d="M0 0 C68.89 0, 137.78 0, 220 0 M0 0 C78.94 0, 157.88 0, 220 0 M220 0 C220 17.07, 220 34.13, 220 80 M220 0 C220 31.33, 220 62.65, 220 80 M220 80 C166.6 80, 113.2 80, 0 80 M220 80 C142.93 80, 65.85 80, 0 80 M0 80 C0 53.25, 0 26.5, 0 0 M0 80 C0 48.27, 0 16.54, 0 0" stroke="#fff" stroke-width="1" fill="none"></path></g><g transform="translate(374.5 150) rotate(0 46.5 18.5)"><text x="46.5" y="15.5" font-family="Helvetica, Segoe UI Emoji" font-size="16px" fill="#000" text-anchor="middle" style="white-space: pre;" direction="ltr">Specify</text><text x="46.5" y="34" font-family="Helvetica, Segoe UI Emoji" font-size="16px" fill="#000" text-anchor="middle" style="white-space: pre;" direction="ltr">infrastructure</text></g><g stroke-linecap="round" transform="translate(310 250) rotate(0 110 40)"><path d="M0 0 L220 0 L220 80 L0 80" stroke="none" stroke-width="0" fill="#c9cad9"></path><path d="M0 0 C52.25 0, 104.51 0, 220 0 M0 0 C63.35 0, 126.69 0, 220 0 M220 0 C220 23.56, 220 47.11, 220 80 M220 0 C220 21.79, 220 43.58, 220 80 M220 80 C150.27 80, 80.54 80, 0 80 M220 80 C134.16 80, 48.33 80, 0 80 M0 80 C0 59.96, 0 39.92, 0 0 M0 80 C0 48.77, 0 17.53, 0 0" stroke="#fff" stroke-width="1" fill="none"></path></g><g transform="translate(383.5 270) rotate(0 37.5 18.5)"><text x="37.5" y="15.5" font-family="Helvetica, Segoe UI Emoji" font-size="16px" fill="#000" text-anchor="middle" style="white-space: pre;" direction="ltr">Implement</text><text x="37.5" y="34" font-family="Helvetica, Segoe UI Emoji" font-size="16px" fill="#000" text-anchor="middle" style="white-space: pre;" direction="ltr">code</text></g><g stroke-linecap="round"><g transform="translate(231 50) rotate(0 39.5 0)"><path d="M0 0 C13.17 0, 65.83 0, 79 0 M0 0 C13.17 0, 65.83 0, 79 0" stroke="#000000" stroke-width="1" fill="none"></path></g><g transform="translate(231 50) rotate(0 39.5 0)"><path d="M79 0 L65.41 6.34 L65.41 -6.34 L79 0" stroke="none" stroke-width="0" fill="#000000" fill-rule="evenodd"></path><path d="M79 0 C75.4 1.68, 71.79 3.36, 65.41 6.34 M79 0 C73.93 2.37, 68.85 4.73, 65.41 6.34 M65.41 6.34 C65.41 2.12, 65.41 -2.1, 65.41 -6.34 M65.41 6.34 C65.41 2.33, 65.41 -1.69, 65.41 -6.34 M65.41 -6.34 C68.17 -5.05, 70.93 -3.76, 79 0 M65.41 -6.34 C69.19 -4.58, 72.97 -2.81, 79 0 M79 0 C79 0, 79 0, 79 0 M79 0 C79 0, 79 0, 79 0" stroke="#000000" stroke-width="1" fill="none"></path></g></g><g stroke-linecap="round"><g transform="translate(531 50) rotate(0 39 0)"><path d="M0 0 C13 0, 65 0, 78 0 M0 0 C13 0, 65 0, 78 0" stroke="#000000" stroke-width="1" fill="none"></path></g><g transform="translate(531 50) rotate(0 39 0)"><path d="M78 0 L64.41 6.34 L64.41 -6.34 L78 0" stroke="none" stroke-width="0" fill="#000000" fill-rule="evenodd"></path><path d="M78 0 C72.65 2.5, 67.3 4.99, 64.41 6.34 M78 0 C74.27 1.74, 70.55 3.47, 64.41 6.34 M64.41 6.34 C64.41 2.56, 64.41 -1.22, 64.41 -6.34 M64.41 6.34 C64.41 2.09, 64.41 -2.17, 64.41 -6.34 M64.41 -6.34 C67.41 -4.94, 70.42 -3.54, 78 0 M64.41 -6.34 C68.03 -4.65, 71.66 -2.96, 78 0 M78 0 C78 0, 78 0, 78 0 M78 0 C78 0, 78 0, 78 0" stroke="#000000" stroke-width="1" fill="none"></path></g></g><g stroke-linecap="round"><g transform="translate(720 91) rotate(0 0 49)"><path d="M0 0 C0 16.33, 0 81.67, 0 98 M0 0 C0 16.33, 0 81.67, 0 98" stroke="#000000" stroke-width="1" fill="none"></path></g><g transform="translate(720 91) rotate(0 0 49)"><path d="M0 98 L-6.34 84.41 L6.34 84.41 L0 98" stroke="none" stroke-width="0" fill="#000000" fill-rule="evenodd"></path><path d="M0 98 C-1.97 93.78, -3.93 89.56, -6.34 84.41 M0 98 C-1.67 94.41, -3.34 90.83, -6.34 84.41 M-6.34 84.41 C-3.11 84.41, 0.12 84.41, 6.34 84.41 M-6.34 84.41 C-3.41 84.41, -0.49 84.41, 6.34 84.41 M6.34 84.41 C4 89.42, 1.66 94.44, 0 98 M6.34 84.41 C4.6 88.14, 2.86 91.87, 0 98 M0 98 C0 98, 0 98, 0 98 M0 98 C0 98, 0 98, 0 98" stroke="#000000" stroke-width="1" fill="none"></path></g></g><g stroke-linecap="round"><g transform="translate(610 230) rotate(0 -20 0)"><path d="M0 0 C-6.67 0, -33.33 0, -40 0 M0 0 C-6.67 0, -33.33 0, -40 0" stroke="#000000" stroke-width="1" fill="none"></path></g></g><g stroke-linecap="round"><g transform="translate(310 170) rotate(0 -20 0)"><path d="M0 0 C-6.67 0, -33.33 0, -40 0 M0 0 C-6.67 0, -33.33 0, -40 0" stroke="#000000" stroke-width="1" fill="none"></path></g></g><g stroke-linecap="round"><g transform="translate(310 290) rotate(0 -20 0)"><path d="M0 0 C-6.67 0, -33.33 0, -40 0 M0 0 C-6.67 0, -33.33 0, -40 0" stroke="#000000" stroke-width="1" fill="none"></path></g></g><g stroke-linecap="round"><g transform="translate(128.79735591818798 271.0000000000001) rotate(0 0.30319977454610125 18.999999999999943)"><path d="M0 0 C0.1 6.33, 0.51 31.67, 0.61 38 M0 0 C0.1 6.33, 0.51 31.67, 0.61 38" stroke="#000000" stroke-width="1" fill="none"></path></g><g transform="translate(128.79735591818798 271.0000000000001) rotate(0 0.30319977454610125 18.999999999999943)"><path d="M0.61 38 L-5.95 24.51 L6.73 24.31 L0.61 38" stroke="none" stroke-width="0" fill="#000000" fill-rule="evenodd"></path><path d="M0.61 38 C-1.52 33.62, -3.65 29.24, -5.95 24.51 M0.61 38 C-1.19 34.3, -2.99 30.59, -5.95 24.51 M-5.95 24.51 C-1.43 24.44, 3.08 24.36, 6.73 24.31 M-5.95 24.51 C-1.38 24.44, 3.19 24.36, 6.73 24.31 M6.73 24.31 C5.14 27.85, 3.56 31.39, 0.61 38 M6.73 24.31 C5.41 27.25, 4.09 30.2, 0.61 38 M0.61 38 C0.61 38, 0.61 38, 0.61 38 M0.61 38 C0.61 38, 0.61 38, 0.61 38" stroke="#000000" stroke-width="1" fill="none"></path></g></g><g stroke-linecap="round"><g transform="translate(270 230) rotate(0 -19.5 0)"><path d="M0 0 C-6.5 0, -32.5 0, -39 0 M0 0 C-6.5 0, -32.5 0, -39 0" stroke="#000000" stroke-width="1" fill="none"></path></g><g transform="translate(270 230) rotate(0 -19.5 0)"><path d="M-39 0 L-25.41 -6.34 L-25.41 6.34 L-39 0" stroke="none" stroke-width="0" fill="#000000" fill-rule="evenodd"></path><path d="M-39 0 C-33.59 -2.52, -28.18 -5.05, -25.41 -6.34 M-39 0 C-34.55 -2.07, -30.1 -4.15, -25.41 -6.34 M-25.41 -6.34 C-25.41 -3.75, -25.41 -1.16, -25.41 6.34 M-25.41 -6.34 C-25.41 -3.56, -25.41 -0.78, -25.41 6.34 M-25.41 6.34 C-29.5 4.43, -33.59 2.52, -39 0 M-25.41 6.34 C-30.82 3.82, -36.23 1.29, -39 0 M-39 0 C-39 0, -39 0, -39 0 M-39 0 C-39 0, -39 0, -39 0" stroke="#000000" stroke-width="1" fill="none"></path></g></g><g stroke-linecap="round"><g transform="translate(570 170) rotate(0 -20 0)"><path d="M0 0 C-6.67 0, -33.33 0, -40 0 M0 0 C-6.67 0, -33.33 0, -40 0" stroke="#000000" stroke-width="1" fill="none"></path></g><g transform="translate(570 170) rotate(0 -20 0)"><path d="M-40 0 L-26.41 -6.34 L-26.41 6.34 L-40 0" stroke="none" stroke-width="0" fill="#000000" fill-rule="evenodd"></path><path d="M-40 0 C-35.34 -2.17, -30.68 -4.35, -26.41 -6.34 M-40 0 C-35.49 -2.1, -30.98 -4.21, -26.41 -6.34 M-26.41 -6.34 C-26.41 -2.51, -26.41 1.33, -26.41 6.34 M-26.41 -6.34 C-26.41 -2.15, -26.41 2.03, -26.41 6.34 M-26.41 6.34 C-29.4 4.94, -32.4 3.54, -40 0 M-26.41 6.34 C-30.36 4.5, -34.31 2.65, -40 0 M-40 0 C-40 0, -40 0, -40 0 M-40 0 C-40 0, -40 0, -40 0" stroke="#000000" stroke-width="1" fill="none"></path></g></g><g stroke-linecap="round"><g transform="translate(570 290) rotate(0 -19.5 0)"><path d="M0 0 C-6.5 0, -32.5 0, -39 0 M0 0 C-6.5 0, -32.5 0, -39 0" stroke="#000000" stroke-width="1" fill="none"></path></g><g transform="translate(570 290) rotate(0 -19.5 0)"><path d="M-39 0 L-25.41 -6.34 L-25.41 6.34 L-39 0" stroke="none" stroke-width="0" fill="#000000" fill-rule="evenodd"></path><path d="M-39 0 C-35.47 -1.65, -31.94 -3.29, -25.41 -6.34 M-39 0 C-35.86 -1.47, -32.71 -2.93, -25.41 -6.34 M-25.41 -6.34 C-25.41 -2.12, -25.41 2.1, -25.41 6.34 M-25.41 -6.34 C-25.41 -2.6, -25.41 1.13, -25.41 6.34 M-25.41 6.34 C-30.79 3.83, -36.17 1.32, -39 0 M-25.41 6.34 C-30.17 4.12, -34.93 1.9, -39 0 M-39 0 C-39 0, -39 0, -39 0 M-39 0 C-39 0, -39 0, -39 0" stroke="#000000" stroke-width="1" fill="none"></path></g></g><g stroke-linecap="round"><g transform="translate(270 170) rotate(0 0 60)"><path d="M0 0 C0 20, 0 100, 0 120 M0 0 C0 20, 0 100, 0 120" stroke="#000000" stroke-width="1" fill="none"></path></g></g><g stroke-linecap="round"><g transform="translate(570 170) rotate(0 0 60)"><path d="M0 0 C0 20, 0 100, 0 120 M0 0 C0 20, 0 100, 0 120" stroke="#000000" stroke-width="1" fill="none"></path></g></g></svg>